<?xml version="1.0" standalone="no"?><!DOCTYPE svg PUBLIC "-//W3C//DTD SVG 1.1//EN" "http://www.w3.org/Graphics/SVG/1.1/DTD/svg11.dtd"><svg t="1755833908649" class="icon" viewBox="0 0 1024 1024" version="1.1" xmlns="http://www.w3.org/2000/svg" p-id="7398" xmlns:xlink="http://www.w3.org/1999/xlink" width="200" height="200"><path d="M441.258667 892.928H178.517333A50.346667 50.346667 0 0 1 128 842.752v-261.034667c0-27.733333 22.613333-50.218667 50.517333-50.218666h262.741334a50.346667 50.346667 0 0 1 50.517333 50.218666v261.034667c0 27.733333-22.613333 50.176-50.517333 50.176M441.258667 491.349333H178.517333A50.346667 50.346667 0 0 1 128 441.173333V180.138667c0-27.733333 22.613333-50.176 50.517333-50.176h262.741334a50.346667 50.346667 0 0 1 50.517333 50.176v261.034666c0 27.733333-22.613333 50.176-50.517333 50.176M845.482667 491.349333h-262.741334a50.346667 50.346667 0 0 1-50.517333-50.176V180.138667c0-27.733333 22.613333-50.176 50.517333-50.176h262.741334A50.346667 50.346667 0 0 1 896 180.138667v261.034666c0 27.733333-22.613333 50.176-50.517333 50.176M896 892.928h-313.258667a50.346667 50.346667 0 0 1-50.517333-50.176v-261.034667c0-27.733333 22.613333-50.218667 50.517333-50.218666h262.741334A50.346667 50.346667 0 0 1 896 581.717333v311.210667z" fill="#ED5832" p-id="7399"></path></svg>