<?xml version="1.0" standalone="no"?><!DOCTYPE svg PUBLIC "-//W3C//DTD SVG 1.1//EN" "http://www.w3.org/Graphics/SVG/1.1/DTD/svg11.dtd"><svg t="1755834445776" class="icon" viewBox="0 0 1024 1024" version="1.1" xmlns="http://www.w3.org/2000/svg" p-id="2839" xmlns:xlink="http://www.w3.org/1999/xlink" width="200" height="200"><path d="M512 192H224Q192 192 192 224V768q0 32 32 32h576q32 0 32-32V496a32 32 0 0 1 64 0V768q0 39.744-28.16 67.84-28.096 28.16-67.84 28.16h-576q-39.744 0-67.84-28.16Q128 807.808 128 768V224q0-39.744 28.16-67.84Q184.192 128 224 128H512a32 32 0 0 1 0 64z" fill="#263140" p-id="2840"></path></svg>