<?xml version="1.0" standalone="no"?><!DOCTYPE svg PUBLIC "-//W3C//DTD SVG 1.1//EN" "http://www.w3.org/Graphics/SVG/1.1/DTD/svg11.dtd"><svg t="1755832400736" class="icon" viewBox="0 0 1024 1024" version="1.1" xmlns="http://www.w3.org/2000/svg" p-id="1768" xmlns:xlink="http://www.w3.org/1999/xlink" width="200" height="200"><path d="M92 840m0-30l0-597q0-30 30-30l780 0q30 0 30 30l0 597q0 30-30 30l-780 0q-30 0-30-30Z" fill="#C49C30" p-id="1769"></path><path d="M92 783m0-30l0-583q0-30 30-30l212 0q30 0 30 30l0 583q0 30-30 30l-212 0q-30 0-30-30Z" fill="#C49C30" p-id="1770"></path><path d="M146 814.764m0-30l0-512.529q0-30 30-30l672 0q30 0 30 30l0 512.529q0 30-30 30l-672 0q-30 0-30-30Z" fill="#FFFFFF" p-id="1771"></path><path d="M92 932m0-30l0-562q0-30 30-30l780 0q30 0 30 30l0 562q0 30-30 30l-780 0q-30 0-30-30Z" fill="#FFCF4E" p-id="1772"></path></svg>